<svg id="Layer_1" data-name="Layer 1" xmlns="http://www.w3.org/2000/svg" xmlns:xlink="http://www.w3.org/1999/xlink" viewBox="0 0 698 227.52"><defs><style>.cls-1{fill:none;}.cls-2{clip-path:url(#clip-path);}.cls-3{fill:#023047;}.cls-4{fill:#fa5;}.cls-5{fill:#706865;}.cls-6{fill:#ccbdb7;}.cls-7{fill:#b59074;}.cls-8{fill:#d44040;}.cls-9{fill:#ead8cf;}.cls-10{fill:#da9b5b;}.cls-11{fill:#424773;}.cls-12{fill:#292c47;}.cls-13{fill:#eea886;}.cls-14{fill:#3a3f47;}.cls-15{fill:#e2d2ca;}.cls-16{fill:#323657;}.cls-17{fill:#918783;}.cls-18{fill:#5e5854;}.cls-19{fill:#bfb2ac;}.cls-20{fill:#254380;}.cls-21{fill:url(#linear-gradient);}.cls-22{fill:#f5f7ff;}.cls-23{fill:#ffc655;}.cls-24{fill:#dfe1e8;}.cls-25{fill:url(#linear-gradient-2);}.cls-26{fill:url(#linear-gradient-3);}.cls-27{fill:url(#linear-gradient-4);}.cls-28{font-size:61.2px;fill:#fff;}.cls-28,.cls-30{font-family:Beer;}.cls-29,.cls-32{fill:#0a4b63;}.cls-29{stroke:#b59074;stroke-miterlimit:10;stroke-width:3px;}.cls-30{font-size:14.07px;fill:#f9f9f9;}.cls-31{font-size:17.32px;fill:#f7fbfc;font-family:MyriadPro-Regular, Myriad Pro;}</style><clipPath id="clip-path" transform="translate(-609.5 -426.5)"><rect class="cls-1" x="609.5" y="426.5" width="698" height="227" rx="12.26"/></clipPath><linearGradient id="linear-gradient" x1="-4564.19" y1="481.86" x2="-4481.08" y2="481.86" gradientTransform="matrix(-1, 0, 0, 1, -4368.94, -426.5)" gradientUnits="userSpaceOnUse"><stop offset="0" stop-color="#ff9f55"/><stop offset="1" stop-color="#ffd255"/></linearGradient><linearGradient id="linear-gradient-2" x1="678.69" y1="466.13" x2="680.97" y2="466.13" gradientTransform="matrix(1, 0, 0, 1, 0, 0)" xlink:href="#linear-gradient"/><linearGradient id="linear-gradient-3" x1="70.12" y1="33.1" x2="70.54" y2="33.1" gradientTransform="matrix(1, 0, 0, 1, 0, 0)" xlink:href="#linear-gradient"/><linearGradient id="linear-gradient-4" x1="66.15" y1="25.37" x2="100.54" y2="25.37" gradientTransform="matrix(1, 0, 0, 1, 0, 0)" xlink:href="#linear-gradient"/></defs><title>Untitled-3</title><g class="cls-2"><rect class="cls-3" width="698" height="227" rx="12.93"/><rect class="cls-4" x="110.15" y="97.66" width="36.57" height="2.17"/><rect class="cls-5" x="724.55" y="531.98" width="3.2" height="98.72" transform="translate(842.8 736.17) rotate(180)"/><rect class="cls-6" x="140.99" y="97.04" width="25.42" height="3.1"/><rect class="cls-4" x="148.89" y="70.59" width="9.63" height="29.23"/><rect class="cls-7" x="97.03" y="99.86" width="140.83" height="5.61"/><path class="cls-8" d="M679.5,492.39S678,514,682.18,516.58c2.65,1.62,13.19,7.08,12.88,8.1s-6,9.12-6,9.12-20.24-13.34-20.9-17.54,1-31.63,3.78-32.89c2.09-.95,3.19-.17,5.81,1.78C681.48,487.89,679.5,492.39,679.5,492.39Z" transform="translate(-609.5 -426.5)"/><path class="cls-9" d="M716.41,498.56l1.78-.66s-2.22-5.23-3.2-5.1a25,25,0,0,0-2.51.52Z" transform="translate(-609.5 -426.5)"/><path class="cls-10" d="M716.81,499.46c-.22-.17-3.79-7-3.79-7l-7.62,1,4.12,8.11Z" transform="translate(-609.5 -426.5)"/><path class="cls-11" d="M704.42,617.22s-.63,4.37-.71,5-7-.38-7-.38l-.56-5.21S703.55,616.6,704.42,617.22Z" transform="translate(-609.5 -426.5)"/><path class="cls-12" d="M703.78,621.69a18.87,18.87,0,0,0,4.32,3.78c2.12,1.15,5.46,1.6,6.71,2.79.91.86,3.3,4.55-5.51,4.47s-13.07.53-14-.89,1.36-10.45,1.36-10.45S698.74,622.14,703.78,621.69Z" transform="translate(-609.5 -426.5)"/><path class="cls-11" d="M748.79,617.26s-.63,4.37-.71,5-7-.38-7-.38l-.57-5.21S747.92,616.64,748.79,617.26Z" transform="translate(-609.5 -426.5)"/><path class="cls-12" d="M748.15,621.73a18.87,18.87,0,0,0,4.32,3.78c2.12,1.15,9.93,2.09,11.19,3.28.9.86,2.41,4.31-10,4-8.81-.23-13.07.52-14-.9S741,621.43,741,621.43,743,622.23,748.15,621.73Z" transform="translate(-609.5 -426.5)"/><path class="cls-12" d="M682.08,541.72s25.18,4.26,30.86,5.15,36.53,8.57,40.38,10.91c3.07,1.86-1.61,46.56-2.7,63.61H738.47l-.88-51.15c-14.57.36-25-3.41-35.58-1.8s-19.47,3.9-26.21-5.15C675.8,563.29,675.55,543.7,682.08,541.72Z" transform="translate(-609.5 -426.5)"/><path class="cls-12" d="M706.9,621.43l-11.84-.73-1.15-50.46a73,73,0,0,1-13.51-.86l-9.55-22.21c8.37,1.67,35.21,8.44,38.78,10.61C712.7,559.64,708,604.38,706.9,621.43Z" transform="translate(-609.5 -426.5)"/><path class="cls-13" d="M693.67,447.34s9.23-2.55,12.75,4.61,1.93,20.75-2.73,22-11.34-.19-13.27-4.65-3.47-10.8-3-14.9S691.22,448.32,693.67,447.34Z" transform="translate(-609.5 -426.5)"/><path class="cls-13" d="M701.28,472.55s-.1,5.45.5,6.61-12.85.87-12.85.87,2.12-6.54.92-12.12S701.28,472.55,701.28,472.55Z" transform="translate(-609.5 -426.5)"/><path class="cls-14" d="M689.12,465.85s.72,1.46,4.2,1.23,8.08-4.44,9.56-4.82,1.56-1.21,1.56-1.21l.78,1.39,1.52.23s-.31-3.48,1.21-5.7c.67-1-1-13.42-12.36-10.54,0,0-8.67,1.59-8.78,6.43S687.44,463.29,689.12,465.85Z" transform="translate(-609.5 -426.5)"/><path class="cls-15" d="M702.49,479s0-2.22-1-2.43-10.57-1.53-11.81-1l-.53,2.93S691.48,479.94,702.49,479Z" transform="translate(-609.5 -426.5)"/><path class="cls-13" d="M705.26,460.05c-.26-1.82-2.33-3.9-3.51-1.07s.8,7,2.12,6.74S705.61,462.52,705.26,460.05Z" transform="translate(-609.5 -426.5)"/><path class="cls-16" d="M742.57,505.25h0C742.62,505.28,742.63,505.28,742.57,505.25Z" transform="translate(-609.5 -426.5)"/><path class="cls-14" d="M691,448.64s-11.26-.53-2,17Z" transform="translate(-609.5 -426.5)"/><polygon class="cls-17" points="56.4 200.92 57.24 203.27 92.61 192.31 90.92 187.54 56.4 200.92"/><rect class="cls-17" x="89.8" y="152.18" width="4.02" height="38.46"/><rect class="cls-18" x="79.96" y="150.13" width="23.71" height="2.27"/><polygon class="cls-17" points="127.54 200.92 126.7 203.27 91.33 192.31 92.88 187.25 127.54 200.92"/><polygon class="cls-17" points="102.62 203.02 102.62 205.76 91.33 192.31 92.88 187.25 102.62 203.02"/><path class="cls-19" d="M740.35,630.69a3.31,3.31,0,1,1-3.31-3.3A3.31,3.31,0,0,1,740.35,630.69Z" transform="translate(-609.5 -426.5)"/><path class="cls-19" d="M712.4,630.69a3.31,3.31,0,1,1-3.31-3.3A3.31,3.31,0,0,1,712.4,630.69Z" transform="translate(-609.5 -426.5)"/><path class="cls-19" d="M669.21,630.69a3.31,3.31,0,1,1-3.31-3.3A3.31,3.31,0,0,1,669.21,630.69Z" transform="translate(-609.5 -426.5)"/><rect class="cls-20" x="63.88" y="141.55" width="56.18" height="8.58" rx="2.91"/><rect class="cls-5" x="216.64" y="105.48" width="3.2" height="98.72"/><rect class="cls-21" x="112.15" y="26.04" width="83.11" height="58.63" rx="18.21"/><rect class="cls-22" x="118.5" y="31.5" width="71" height="46" rx="4.7"/><path class="cls-23" d="M780.41,526.44v-1s-1.47-6.49-11.84-6.49-10.17,7.53-10.17,7.53Z" transform="translate(-609.5 -426.5)"/><path class="cls-13" d="M758.27,519.87a10.11,10.11,0,0,0,3.08-.67c.83-.5,5.77-3.82,6.93-3.29s8.88,2.9,8.62,4-1,1-1.53.82-6.15-1.38-6.65-1.18c0,0,5.51,2,5.53,3.47s-1.15,1.83-1.67,2.38-1.15,1.93-2.57,2-8.35-2.31-9.78-2.42-4.06.09-4.24-.14S758.27,519.87,758.27,519.87Z" transform="translate(-609.5 -426.5)"/><path class="cls-8" d="M717.24,482.1c-7.19-1.27-14.75-3.08-14.75-3.08l-13.39-.54s-12.28,2.7-17.12,4.89c-.46.2-.46,10.95-1.72,13.77l4,8.46s2.32,16.77,2.8,24.22c.22,3.42-.62,33.07-.62,33.07s1.2.6,10.33,1.6,32-.36,32.11-1.44-4.42-40.17-4.63-42.2c-.31-3.1.9-17.46.9-17.46,1.72,2.31,6.11,12.75,10.68,17.72,2.69,2.92,16,4.71,18.52,4.79,5.47.19,15.44,1.27,15.73.74.24-.32.87-8.85.25-9.06s-19.07-1.24-23.81-3.76c-1.73-.92-6.92-12.23-6.92-12.23S721.2,483.88,717.24,482.1Z" transform="translate(-609.5 -426.5)"/><rect class="cls-20" x="50.76" y="81.88" width="38.74" height="53.66" rx="13.14"/><path class="cls-20" d="M692.13,574.5c-5.71,0-10.34-1.92-13.77-5.7-7.74-8.56-6.35-23.59-6.29-24.22a2.16,2.16,0,0,1,4.29.42c0,.17-1.25,13.8,5.21,20.91,2.61,2.88,6.06,4.28,10.56,4.28a2.16,2.16,0,1,1,0,4.31Z" transform="translate(-609.5 -426.5)"/><rect class="cls-24" x="120.83" y="34.9" width="22.44" height="2.44" rx="0.83"/><rect class="cls-24" x="120.83" y="41.14" width="22.44" height="2.44" rx="0.83"/><rect class="cls-24" x="121.05" y="47.45" width="21.79" height="26.85" rx="7.61"/><rect class="cls-24" x="147.24" y="36.51" width="38.81" height="37.78" rx="13.19"/><path class="cls-25" d="M679.83,464c-1.3.73-1.14,4.22-1.14,4.22H681S681.12,464.75,679.83,464Z" transform="translate(-609.5 -426.5)"/><rect class="cls-26" x="70.12" y="27.64" width="0.42" height="10.91"/><polygon class="cls-27" points="66.15 28.36 84.23 35.11 100.54 20.44 81.83 15.63 66.15 28.36"/><text class="cls-28" transform="translate(330.26 86) rotate(-0.21)">KUTAK ZA <tspan x="0" y="73.44">OSMAKe</tspan></text><line class="cls-29" x1="316" y1="172" x2="698" y2="171"/><text class="cls-30" transform="translate(343.4 196.68)"><tspan xml:space="preserve">Sve informacije koje su   </tspan><tspan x="-4.73" y="16.88" xml:space="preserve">       vam potrebne za upis</tspan></text><text class="cls-31" transform="translate(549.1 214)">!</text><path class="cls-32" d="M900.91,628.61c-9.5-8.25-14.95-13-23.12-14-12.29-1.4-14.92,7.46-29.14,8-14.4.52-25.92-8.06-31.15-12-14.87-11.08-11.33-18.65-22.1-23.9-16.6-8.1-30.19,7.34-43.86-2-7.23-4.94-5.7-10.41-16.44-17.93-2.76-1.94-9.26-6.36-18.08-6a26.68,26.68,0,0,0-12.43,3.81c-9.46,2.74-21.9,4.66-29.78-1.82-5.66-4.65-3.75-9.38-10-16.93-11-13.14-29.32-13.87-32.15-13.94A47.71,47.71,0,0,0,610,537.16V644a14.17,14.17,0,0,0,6,8,17.23,17.23,0,0,0,8.84,2h.2c2.94-.09,92.69-.4,296.93-1A114.2,114.2,0,0,0,900.91,628.61Z" transform="translate(-609.5 -426.5)"/></g></svg>